<svg width="632" height="179" viewBox="0 0 632 179" fill="none" xmlns="http://www.w3.org/2000/svg">
<g clip-path="url(#clip0_2_2)">
<rect width="632" height="179" fill="#375C38"/>
<rect y="147" width="10" height="32" rx="3" fill="#FFBD59"/>
<rect x="20" y="147" width="10" height="32" rx="3" fill="#FFBD59"/>
<rect x="40" y="147" width="10" height="32" rx="3" fill="#FFBD59"/>
<rect x="60" y="147" width="10" height="32" rx="3" fill="#FFBD59"/>
<rect x="80" y="147" width="10" height="32" rx="3" fill="#FFBD59"/>
<rect x="100" y="147" width="10" height="32" rx="3" fill="#FFBD59"/>
<rect x="120" y="147" width="10" height="32" rx="3" fill="#FFBD59"/>
<rect x="140" y="147" width="10" height="32" rx="3" fill="#FFBD59"/>
<rect x="400" y="147" width="10" height="32" rx="3" fill="#FFBD59"/>
<rect x="420" y="141" width="10" height="38" rx="3" fill="#FFBD59"/>
<rect x="440" y="132" width="10" height="47" rx="3" fill="#FFBD59"/>
<rect x="460" y="121" width="10" height="58" rx="3" fill="#FFBD59"/>
<rect x="480" y="112" width="10" height="67" rx="3" fill="#FFBD59"/>
<rect x="501" y="96" width="10" height="83" rx="3" fill="#FFBD59"/>
<rect x="522" y="80" width="10" height="99" rx="3" fill="#FFBD59"/>
<rect x="542" y="64" width="10" height="115" rx="3" fill="#FFBD59"/>
<rect x="563" y="48" width="10" height="131" rx="3" fill="#FFBD59"/>
<rect x="583" y="32" width="10" height="147" rx="3" fill="#FFBD59"/>
<rect x="603" y="16" width="10" height="163" rx="3" fill="#FFBD59"/>
<rect x="622" width="10" height="179" rx="3" fill="#FFBD59"/>
<rect x="160" y="147" width="10" height="32" rx="3" fill="#FFBD59"/>
<rect x="180" y="147" width="10" height="32" rx="3" fill="#FFBD59"/>
<rect x="200" y="147" width="10" height="32" rx="3" fill="#FFBD59"/>
<rect x="220" y="147" width="10" height="32" rx="3" fill="#FFBD59"/>
<rect x="240" y="147" width="10" height="32" rx="3" fill="#FFBD59"/>
<rect x="260" y="147" width="10" height="32" rx="3" fill="#FFBD59"/>
<rect x="280" y="147" width="10" height="32" rx="3" fill="#FFBD59"/>
<rect x="300" y="147" width="10" height="32" rx="3" fill="#FFBD59"/>
<rect x="320" y="147" width="10" height="32" rx="3" fill="#FFBD59"/>
<rect x="340" y="147" width="10" height="32" rx="3" fill="#FFBD59"/>
<rect x="360" y="147" width="10" height="32" rx="3" fill="#FFBD59"/>
<rect x="380" y="147" width="10" height="32" rx="3" fill="#FFBD59"/>
</g>
<defs>
<clipPath id="clip0_2_2">
<rect width="632" height="179" fill="white"/>
</clipPath>
</defs>
</svg>
